<?xml version="1.0" encoding="UTF-8" standalone="no"?>
<!DOCTYPE svg PUBLIC "-//W3C//DTD SVG 1.1//EN" "http://www.w3.org/Graphics/SVG/1.1/DTD/svg11.dtd">
<svg width="100%" height="100%" viewBox="0 0 994 201" version="1.1" xmlns="http://www.w3.org/2000/svg" xmlns:xlink="http://www.w3.org/1999/xlink" xml:space="preserve" xmlns:serif="http://www.serif.com/" style="fill-rule:evenodd;clip-rule:evenodd;stroke-linejoin:round;stroke-miterlimit:2;">
    <g id="Artboard1" transform="matrix(1,0,0,1,-741.185,-1653.86)">
        <rect x="741.185" y="1653.86" width="993.967" height="200.146" style="fill:none;"/>
        <clipPath id="_clip1">
            <rect x="741.185" y="1653.86" width="993.967" height="200.146"/>
        </clipPath>
        <g clip-path="url(#_clip1)">
            <g transform="matrix(1,0,0,1,1164.72,1653.66)">
                <g transform="matrix(4.16667,0,0,-4.16667,-1024.48,511.473)">
                    <path d="M337.156,97.063C337.109,98.282 337.156,99.645 336.379,100.618C335.84,101.301 334.965,101.79 334.09,101.739C330.73,101.591 330.633,96.477 330.633,92.923C330.68,89.368 330.34,83.719 333.941,83.669C334.82,83.622 335.746,84.255 336.281,84.985C337.062,86.055 337.062,87.419 337.109,88.735C337.156,90.149 337.254,91.559 337.254,92.923C337.254,94.239 337.156,95.602 337.156,97.063ZM335.109,104.758C338.23,105.098 342.953,102.325 342.805,92.68C342.613,82.598 337.887,80.794 335.258,80.844C333.797,80.844 331.801,81.528 330.434,83.426L330.434,76.696L332.352,76.696L332.352,74.555L323.52,74.555L323.52,76.696L325.418,76.696L325.418,102.024L323.52,102.024L323.52,104.165L330.434,104.165L330.434,101.641C331.555,103.344 333.359,104.614 335.109,104.758Z" style="fill:rgb(227,0,22);"/>
                </g>
                <g transform="matrix(4.16667,0,0,-4.16667,-1024.48,489.219)">
                    <path d="M321.973,77.929L319.438,77.929L319.438,96.683L321.406,96.683L321.406,98.824L304.754,98.824L304.754,96.683L307.516,96.683L305.32,82C304.797,79.066 302.816,77.914 301.98,77.941L300.648,77.929L300.648,75.488L321.973,75.488L321.973,77.929ZM314.211,96.683L314.211,77.929L307.609,77.929C308.422,79.316 308.91,81.945 309.074,83.242L311.105,96.683L314.211,96.683Z" style="fill:rgb(227,0,22);"/>
                </g>
                <g transform="matrix(4.16667,0,0,-4.16667,-1024.48,489.236)">
                    <path d="M276.359,75.488L276.359,77.933L274.395,77.933L274.395,96.461C274.395,96.461 275.191,96.457 275.91,96.457C276.625,96.457 277.176,95.664 277.375,95.086C277.73,94.043 277.77,91.863 277.77,91.863L280.867,91.863L280.867,98.828L262.922,98.828L262.922,91.863L265.957,91.863C265.957,91.863 266.012,94.082 266.309,95.086C266.469,95.707 267.121,96.461 267.609,96.461L269.387,96.461L269.387,77.933L267.309,77.933L267.309,75.488L276.359,75.488Z" style="fill:rgb(0,132,52);"/>
                </g>
                <g transform="matrix(4.16667,0,0,-4.16667,-1024.48,489.498)">
                    <path d="M254.098,96.524L254.035,77.996L252.016,77.996L252.016,75.551L261.184,75.551L261.184,77.996L259.156,77.996L259.156,96.75L261.184,96.75L261.184,98.891L243.977,98.891L243.977,96.75L245.945,96.75L245.945,85.836C245.945,82.856 245.852,78.676 243.641,78.02C242.574,77.707 242.172,78.242 242.172,78.664C242.172,78.746 242.758,79.004 243.035,79.395C243.344,79.836 243.426,80.559 243.426,80.957C243.426,82.422 242.176,83.531 240.824,83.531C239.48,83.418 238.18,82.297 238.016,80.375C237.848,78.02 239.699,75.488 243.188,75.539C248.758,75.598 249.547,80.723 249.547,86.399L249.547,96.524L254.098,96.524Z" style="fill:rgb(0,132,52);"/>
                </g>
                <g transform="matrix(4.16667,0,0,-4.16667,-1024.48,486.698)">
                    <path d="M237.242,77.324L236.477,77.336C235.805,77.371 235.406,77.922 235.359,78.852C235.344,79.359 235.352,79.934 235.352,80.5L235.352,92.082C235.352,97.934 230.57,98.777 228.539,98.777C224.266,98.891 220.949,96.078 220.84,93.203C220.727,91.519 221.734,90.059 223.367,90.004C224.773,89.941 225.898,90.902 226.18,92.191C226.238,92.59 226.223,93.371 226.008,93.785C225.582,94.605 225.371,94.699 225.418,94.836C225.613,95.391 226.52,96.246 227.926,96.187C230.23,96.187 230.281,94.668 230.281,94.277L230.281,89.496C221.418,89.008 218.973,85.559 219.074,80.844C219.156,77.035 222.43,74.816 225.281,74.867C227.082,74.906 229.105,76.051 230.281,77.348C230.738,76.336 231.922,74.926 234.449,74.867C235.352,74.867 237.238,74.883 237.238,74.883L237.242,77.324ZM230.281,86.797L230.281,82.301C230.281,79.258 228.039,78.082 226.637,78.187C226.129,78.25 223.812,78.523 223.797,81.426C223.762,86.145 228.027,86.664 230.281,86.797Z" style="fill:rgb(0,132,52);"/>
                </g>
                <g transform="matrix(4.16667,0,0,-4.16667,-1024.48,486.698)">
                    <path d="M362.633,77.324L361.863,77.336C361.191,77.371 360.793,77.922 360.75,78.852C360.73,79.359 360.734,79.934 360.734,80.5L360.734,92.082C360.734,97.934 355.957,98.777 353.93,98.777C349.656,98.891 346.34,96.078 346.227,93.203C346.113,91.519 347.125,90.059 348.754,90.004C350.16,89.941 351.289,90.902 351.566,92.191C351.625,92.59 351.609,93.371 351.398,93.785C350.969,94.605 350.758,94.699 350.809,94.836C351.004,95.391 351.906,96.246 353.312,96.187C355.621,96.187 355.672,94.668 355.672,94.277L355.672,89.496C346.805,89.008 344.359,85.559 344.465,80.844C344.543,77.035 347.816,74.816 350.672,74.867C352.473,74.906 354.492,76.051 355.672,77.348C356.125,76.336 357.309,74.926 359.84,74.867C360.734,74.867 362.629,74.883 362.629,74.883L362.633,77.324ZM355.672,86.797L355.672,82.301C355.672,79.258 353.43,78.082 352.023,78.187C351.516,78.25 349.199,78.523 349.184,81.426C349.152,86.145 353.418,86.664 355.672,86.797Z" style="fill:rgb(227,0,22);"/>
                </g>
                <g transform="matrix(4.16667,0,0,-4.16667,-1024.48,440.49)">
                    <path d="M214.426,88.758L214.426,98.824L193.172,98.824L193.172,96.179L196.434,96.179L196.434,66.234L193.172,66.234L193.172,63.793L207.797,63.793C210.441,63.793 217.977,65.469 217.469,74.918C217.301,77.844 216.289,81.726 211.848,83.472C209.875,84.254 207.734,84.312 205.602,84.422C204.59,84.422 203.52,84.48 202.449,84.422L202.449,96.238L206.277,96.238C208.75,96.238 209.84,95.297 210.398,93.609C210.684,92.539 210.812,90.949 210.828,88.758L214.426,88.758ZM202.449,67.039L202.449,81.617C210.328,82.289 210.719,78.914 210.828,74.805C210.945,71.148 210.887,65.691 202.449,67.039Z" style="fill:rgb(0,132,52);"/>
                </g>
                <g transform="matrix(4.16667,0,0,-4.16667,-1024.48,375.631)">
                    <path d="M163.973,70.86C164.18,70.926 164.395,70.981 164.621,71.028C163.746,71.766 162.363,73.25 160.836,76.106C158.328,80.899 158.328,83.852 160.277,82.848C161.84,82.024 162.727,81.028 163.543,79.047C163.078,82.762 164.035,84.645 165.629,83.52C167.527,82.125 168.141,80.676 168.141,77.106C168.141,74.586 167.711,72.156 167.465,70.985C167.797,70.922 168.133,70.848 168.477,70.75C168.602,70.711 168.723,70.668 168.852,70.625C168.398,71.61 167.965,73.242 168.141,75.77C168.477,80.563 170.426,82.961 172.043,81.457C173.297,80.242 173.668,79.125 173.254,77.199C174.797,79.953 176.523,80.824 177.281,79.344C178.227,77.567 177.953,76.196 176.086,73.481C174.613,71.438 172.805,69.664 172.059,68.965C172.293,68.785 172.523,68.61 172.738,68.418C173.242,69.145 174.676,71.121 176.504,72.813C178.789,74.879 180.125,75.379 182.133,74.879C184.195,74.43 182.914,72.035 178.789,69.75C175.926,68.16 174.031,68 173.137,68.047C173.336,67.856 173.52,67.66 173.691,67.457C174.805,67.926 177.234,68.887 179.848,69.582C183.473,70.528 185.145,70.473 187.039,69.469C188.539,68.676 187.168,67.602 183.738,66.942C186.516,66.766 187.898,66.274 189.215,65.231C190.414,64.278 188.777,63.696 185.289,63.828C188.797,63.371 190.441,62.731 191.766,61.504C193.055,60.258 190.305,59.863 185.266,60.637C185.297,60.625 185.332,60.613 185.367,60.606C189.414,59.254 191.719,58.258 193.172,57.156L193.172,77.742L181.02,77.742L181.02,89.895L157.379,89.895L157.379,79.028C157.906,78.5 158.473,77.887 159.109,77.164C161.383,74.574 163.301,71.848 163.973,70.86Z" style="fill:rgb(227,0,22);"/>
                </g>
                <g transform="matrix(4.16667,0,0,-4.16667,-1024.48,482.811)">
                    <path d="M173.441,87.317C175.098,86.735 177.941,85.712 180.918,84.512C177.555,86.129 175.656,87.395 174.586,88.262C174.305,87.876 173.918,87.559 173.441,87.317Z" style="fill:rgb(227,0,22);"/>
                </g>
                <g transform="matrix(4.16667,0,0,-4.16667,-1024.48,397.148)">
                    <path d="M170.164,75.258C170.609,75.047 171.031,74.809 171.434,74.555C171.293,75.172 171.199,76.192 171.488,77.66C170.988,76.664 170.504,75.82 170.164,75.258Z" style="fill:rgb(227,0,22);"/>
                </g>
                <g transform="matrix(4.16667,0,0,-4.16667,-1024.48,446.336)">
                    <path d="M180.902,81.223C177.77,81.688 175.855,82.305 174.73,82.797C174.926,82.352 175.051,81.903 175.09,81.461C176.516,81.446 178.613,81.387 180.902,81.223Z" style="fill:rgb(227,0,22);"/>
                </g>
                <g transform="matrix(4.16667,0,0,-4.16667,-1024.48,387.302)">
                    <path d="M165.48,73.926C165.777,73.942 166.078,73.942 166.395,73.922C166.027,74.368 165.594,75.016 165.164,75.93C165.312,75.106 165.418,74.414 165.48,73.926Z" style="fill:rgb(227,0,22);"/>
                </g>
                <g transform="matrix(4.16667,0,0,-4.16667,-1024.48,522.911)">
                    <path d="M178.359,92.949C179.344,92.257 180.367,91.523 181.371,90.765C182.02,90.285 182.594,89.851 183.113,89.449L185.664,89.449C183.957,90.14 181.883,91.101 179.555,92.316C179.133,92.535 178.734,92.746 178.359,92.949Z" style="fill:rgb(227,0,22);"/>
                </g>
                <g transform="matrix(4.16667,0,0,-4.16667,-1024.48,528.023)">
                    <path d="M189.84,90.676L193.172,90.676L193.172,91.012C191.691,91.176 189.363,91.824 186.469,92.949C188.191,92.094 189.203,91.406 189.84,90.676Z" style="fill:rgb(227,0,22);"/>
                </g>
                <g transform="matrix(-2.13401,3.5787,-3.5787,-2.13401,158.006,-319.701)">
                    <path d="M147.53,68.001C147.494,70.269 147.234,71.761 146.811,72.159L147.53,73.363L149.394,72.251C148.462,71.534 147.908,70.368 147.53,68.001Z" style="fill:rgb(0,132,52);"/>
                </g>
                <g transform="matrix(4.16667,0,0,-4.16667,-1024.48,383.394)">
                    <path d="M145.227,76.246L145.227,74.125C146.652,73.957 148.547,73.484 151.176,72.668C148.176,74.031 146.062,75.328 145.227,76.246Z" style="fill:rgb(0,132,52);"/>
                </g>
                <g transform="matrix(4.16667,0,0,-4.16667,-1024.48,371.448)">
                    <path d="M162.844,69.309C163.047,69.453 163.27,69.574 163.512,69.68C162.516,70.055 160.469,71.098 157.211,73.985C156.078,74.977 155.121,75.899 154.332,76.738L150.5,76.738C151.684,76.266 153.16,75.488 155.148,74.32C158.332,72.449 161.367,70.356 162.844,69.309Z" style="fill:rgb(0,132,52);"/>
                </g>
                <g transform="matrix(4.16667,0,0,-4.16667,-1024.48,553.056)">
                    <path d="M172.449,103.817C172.25,103.77 172.043,103.727 171.828,103.699C172.66,102.485 174.477,99.754 175.887,97.055C177.781,93.43 177.953,92.09 176.727,91.254C175.57,90.453 173.418,93.008 171.863,97.192C171.867,97.164 171.875,97.137 171.879,97.11C172.77,93.094 172.57,91.699 170.992,91.086C169.469,90.477 167.742,94.156 167.645,99.453C167.602,101.789 167.934,103.18 168.316,104.008C168.293,104.012 168.273,104.016 168.25,104.024C167.891,104.133 167.543,104.262 167.199,104.403C167.285,103.192 167.473,99.965 167.254,96.903C166.926,93.035 166.324,91.742 164.703,91.367C163.035,91.043 162.477,94.75 163.867,99.75C164.82,103.055 165.949,104.238 166.605,104.668C166.324,104.801 166.047,104.945 165.777,105.102C165.27,103.899 164.242,101.653 162.898,99.617C161.004,96.61 159.777,95.828 157.824,96.051C157.652,96.071 157.508,96.121 157.379,96.184L157.379,84.531L181.02,84.531L181.02,95.336C179.969,96.16 178.832,97.106 177.633,98.168C173.781,101.547 172.734,103.164 172.449,103.817Z" style="fill:rgb(0,132,52);"/>
                </g>
                <g transform="matrix(4.16667,0,0,-4.16667,-1024.48,440.406)">
                    <path d="M160.18,81.378C161.098,81.257 161.875,81.148 162.461,81.062C162.359,81.218 162.27,81.374 162.184,81.535C161.719,81.445 161.07,81.378 160.18,81.378Z" style="fill:rgb(0,132,52);"/>
                </g>
                <g transform="matrix(4.16667,0,0,-4.16667,-1024.48,425.661)">
                    <path d="M152.695,78.632C153.191,78.597 153.688,78.554 154.188,78.511C154.059,78.535 153.941,78.554 153.812,78.578C150.32,79.214 147.371,80.019 145.227,80.824L145.227,78.234C146.16,78.906 148.156,79.015 152.695,78.632Z" style="fill:rgb(0,132,52);"/>
                </g>
                <g transform="matrix(4.16667,0,0,-4.16667,-1024.48,490.115)">
                    <path d="M169.926,88.586C170.176,87.879 170.492,86.961 170.809,85.941C170.617,87.234 170.715,88.039 170.887,88.527C170.578,88.527 170.254,88.55 169.926,88.586Z" style="fill:rgb(0,132,52);"/>
                </g>
                <g transform="matrix(4.16667,0,0,-4.16667,-1024.48,405.448)">
                    <path d="M162.207,76.867C161.215,77.039 159.672,77.453 157.363,78.391C159.113,77.398 160.641,76.473 161.703,75.816C161.801,76.207 161.969,76.562 162.207,76.867Z" style="fill:rgb(0,132,52);"/>
                </g>
                <g transform="matrix(4.16667,0,0,-4.16667,-1024.48,491.498)">
                    <path d="M160.445,88.132C162.312,89.945 163.762,90.699 164.73,91.011C164.582,91.117 164.438,91.23 164.297,91.343C163.223,90.707 160.52,89.16 157.547,87.91C153.754,86.293 151.973,86.07 150.074,86.851C148.125,87.687 150.965,89.75 156.875,91.199C160.387,92.05 162.5,92.054 163.652,91.914C163.395,92.164 163.156,92.418 162.941,92.683C162.102,92.324 160.25,91.879 156.152,91.812C150.793,91.683 146.566,92.218 145.227,92.949L145.227,81.91L156.922,81.91C156.488,83.027 157.695,85.468 160.445,88.132Z" style="fill:rgb(0,132,52);"/>
                </g>
                <g transform="matrix(4.16667,0,0,-4.16667,-1024.48,426.556)">
                    <path d="M161.652,79.757C161.172,79.785 160.559,79.863 159.781,80.023C160.543,79.73 161.215,79.464 161.758,79.25C161.711,79.418 161.676,79.589 161.652,79.757Z" style="fill:rgb(0,132,52);"/>
                </g>
                <g transform="matrix(4.16667,0,0,-4.16667,-1024.48,438.394)">
                    <path d="M280.867,88.145L280.867,98.325L283.887,98.325L283.887,97.149C283.887,96.61 284.43,96.93 284.469,96.962C284.512,96.993 284.547,97.024 284.586,97.055C286.078,98.223 287.957,99.055 290.852,99.055C296.988,99.102 300.199,94.868 300.25,90.872C300.297,86.977 297.328,83.618 293.188,82.594C296.84,81.669 301.664,79.282 301.711,73.094C301.762,66.52 296.695,63.012 290.07,63.161C282.375,63.208 279.551,67.786 279.598,71.391C279.598,74.118 281.352,75.727 283.254,75.676C284.957,75.676 286.566,74.262 286.613,72.169C286.613,71.149 286.27,70.075 285.641,69.298C285.445,69.153 285.297,69.005 285.199,68.809C285.102,68.614 285.051,68.419 285.051,68.274C285.102,67.251 287.391,65.594 289.582,65.692C292.41,65.79 295.039,68.079 294.988,73.094C294.941,79.184 291.629,81.571 285.738,81.278L285.738,83.86C293.625,83.665 294.016,87.61 294.016,90.68C293.969,92.333 293.773,96.231 289.781,96.231C285.543,96.278 284.664,92.137 284.469,88.098L280.867,88.145Z" style="fill:rgb(227,0,22);"/>
                </g>
                <g transform="matrix(4.16667,0,0,-4.16667,-1024.48,489.19)">
                    <path d="M373.379,78.067C374.109,78.117 374.891,78.067 375.52,78.41C377.176,79.188 377.227,81.586 377.227,82.364C377.227,85.285 376.25,87.184 371.77,86.797L371.77,78.117C372.258,78.067 372.844,78.067 373.379,78.067ZM373.281,89.328C376.738,89.282 376.789,92.348 376.789,92.981C376.789,93.907 376.738,96.539 373.281,96.489L371.77,96.489L371.77,89.328L373.281,89.328ZM364.516,77.922L366.559,77.922L366.559,96.684L364.516,96.684L364.516,98.828L374.742,98.828C379.27,98.828 381.512,96.196 381.707,93.664C381.902,90.547 379.172,88.743 376.738,88.207C380.148,87.77 382.828,85.481 382.73,82.172C382.633,76.129 376.398,75.477 374.742,75.477L364.516,75.477L364.516,77.922Z" style="fill:rgb(227,0,22);"/>
                </g>
                <g transform="matrix(4.16667,0,0,-4.16667,-1024.48,623.24)">
                    <path d="M220.184,105.094L220.852,102.168L220.863,102.168L221.523,105.094L222.645,105.094L222.645,101.383L221.922,101.383L221.922,104.485L221.914,104.485L221.223,101.383L220.461,101.383L219.785,104.485L219.773,104.485L219.773,101.383L219.055,101.383L219.055,105.094L220.184,105.094Z" style="fill:rgb(0,132,52);"/>
                </g>
                <g transform="matrix(4.16667,0,0,-4.16667,-1024.48,623.24)">
                    <path d="M226.965,103.688L228.414,103.688L228.414,105.094L229.188,105.094L229.188,101.383L228.414,101.383L228.414,103.047L226.965,103.047L226.965,101.383L226.195,101.383L226.195,105.094L226.965,105.094L226.965,103.688Z" style="fill:rgb(0,132,52);"/>
                </g>
                <g transform="matrix(4.16667,0,0,-4.16667,-1024.48,623.236)">
                    <path d="M234.391,101.941C234.809,101.941 235.398,102.199 235.398,103.238C235.398,104.277 234.809,104.535 234.391,104.535C233.973,104.535 233.383,104.277 233.383,103.238C233.383,102.199 233.973,101.941 234.391,101.941ZM234.391,105.191C234.883,105.191 236.168,104.976 236.168,103.238C236.168,101.499 234.883,101.285 234.391,101.285C233.898,101.285 232.609,101.499 232.609,103.238C232.609,104.976 233.898,105.191 234.391,105.191Z" style="fill:rgb(0,132,52);"/>
                </g>
                <g transform="matrix(4.16667,0,0,-4.16667,-1024.48,623.24)">
                    <path d="M242.238,105.094L242.238,104.454L240.367,104.454L240.367,101.383L239.594,101.383L239.594,105.094L242.238,105.094Z" style="fill:rgb(0,132,52);"/>
                </g>
                <g transform="matrix(4.16667,0,0,-4.16667,-1024.48,623.236)">
                    <path d="M247.215,101.941C247.637,101.941 248.223,102.199 248.223,103.238C248.223,104.277 247.637,104.535 247.215,104.535C246.797,104.535 246.211,104.277 246.211,103.238C246.211,102.199 246.797,101.941 247.215,101.941ZM247.215,105.191C247.707,105.191 248.996,104.976 248.996,103.238C248.996,101.499 247.707,101.285 247.215,101.285C246.727,101.285 245.438,101.499 245.438,103.238C245.438,104.976 246.727,105.191 247.215,105.191Z" style="fill:rgb(0,132,52);"/>
                </g>
                <g transform="matrix(4.16667,0,0,-4.16667,-1024.48,623.24)">
                    <path d="M255.41,105.094L255.41,101.383L254.641,101.383L254.641,104.454L253.191,104.454L253.191,101.383L252.422,101.383L252.422,105.094L255.41,105.094Z" style="fill:rgb(0,132,52);"/>
                </g>
                <g transform="matrix(4.16667,0,0,-4.16667,-1024.48,623.24)">
                    <path d="M259.734,103.36L260.457,103.36C260.969,103.36 261.035,103.707 261.035,103.938C261.035,104.301 260.836,104.454 260.355,104.454L259.734,104.454L259.734,103.36ZM259.734,101.383L258.965,101.383L258.965,105.094L260.66,105.094C261.379,105.094 261.805,104.637 261.805,103.907C261.805,103.575 261.621,102.723 260.625,102.723L259.734,102.723L259.734,101.383Z" style="fill:rgb(0,132,52);"/>
                </g>
                <g transform="matrix(4.16667,0,0,-4.16667,-1024.48,623.236)">
                    <path d="M266.883,101.941C267.301,101.941 267.891,102.199 267.891,103.238C267.891,104.277 267.301,104.535 266.883,104.535C266.465,104.535 265.875,104.277 265.875,103.238C265.875,102.199 266.465,101.941 266.883,101.941ZM266.883,105.191C267.375,105.191 268.66,104.976 268.66,103.238C268.66,101.499 267.375,101.285 266.883,101.285C266.391,101.285 265.105,101.499 265.105,103.238C265.105,104.976 266.391,105.191 266.883,105.191Z" style="fill:rgb(0,132,52);"/>
                </g>
                <g transform="matrix(4.16667,0,0,-4.16667,-1024.48,623.24)">
                    <path d="M274.422,104.094L274.422,102.407C274.816,102.407 275.344,102.543 275.344,103.239C275.344,103.938 274.816,104.094 274.422,104.094ZM273.652,102.407L273.652,104.094C273.258,104.094 272.73,103.938 272.73,103.239C272.73,102.543 273.258,102.407 273.652,102.407ZM274.422,104.715C275.082,104.715 276.117,104.368 276.117,103.239C276.117,102.106 275.082,101.782 274.422,101.782L274.422,101.383L273.652,101.383L273.652,101.782C272.992,101.782 271.961,102.106 271.961,103.239C271.961,104.368 272.992,104.715 273.652,104.715L273.652,105.094L274.422,105.094L274.422,104.715Z" style="fill:rgb(0,132,52);"/>
                </g>
                <g transform="matrix(4.16667,0,0,-4.16667,-1024.48,623.24)">
                    <path d="M280.312,102.508L280.316,102.508L281.797,105.094L282.664,105.094L282.664,101.383L281.891,101.383L281.891,104.024L281.883,104.024L280.367,101.383L279.539,101.383L279.539,105.094L280.312,105.094L280.312,102.508Z" style="fill:rgb(0,132,52);"/>
                </g>
                <g transform="matrix(4.16667,0,0,-4.16667,-1024.48,623.644)">
                    <path d="M289.188,105.191L289.188,101.48L288.414,101.48L288.414,104.551L287.367,104.551L287.367,102.969C287.367,102.008 287.133,101.383 286.402,101.383C286.227,101.383 286.062,101.398 285.93,101.437L285.93,102.031C285.977,102.015 286.059,102 286.16,102C286.508,102 286.598,102.246 286.598,103.047L286.598,105.191L289.188,105.191Z" style="fill:rgb(0,132,52);"/>
                </g>
                <g transform="matrix(4.16667,0,0,-4.16667,-1024.48,623.24)">
                    <path d="M293.512,102.02L294.387,102.02C294.758,102.02 294.973,102.25 294.973,102.559C294.973,102.887 294.734,103.047 294.387,103.047L293.512,103.047L293.512,102.02ZM293.512,103.688L294.48,103.688C295.195,103.688 295.746,103.254 295.746,102.516C295.746,101.786 295.207,101.383 294.469,101.383L292.738,101.383L292.738,105.094L293.512,105.094L293.512,103.688Z" style="fill:rgb(0,132,52);"/>
                </g>
                <g transform="matrix(4.16667,0,0,-4.16667,-1024.48,623.24)">
                    <path d="M299.945,103.688L301.391,103.688L301.391,105.094L302.164,105.094L302.164,101.383L301.391,101.383L301.391,103.047L299.945,103.047L299.945,101.383L299.172,101.383L299.172,105.094L299.945,105.094L299.945,103.688Z" style="fill:rgb(0,132,52);"/>
                </g>
                <g transform="matrix(4.16667,0,0,-4.16667,-1024.48,623.24)">
                    <path d="M306.742,102.789L307.734,102.789L307.227,104.254L307.215,104.254L306.742,102.789ZM307.68,105.094L308.98,101.383L308.145,101.383L307.902,102.149L306.539,102.149L306.277,101.383L305.465,101.383L306.781,105.094L307.68,105.094Z" style="fill:rgb(0,132,52);"/>
                </g>
                <g transform="matrix(4.16667,0,0,-4.16667,-1024.48,623.24)">
                    <path d="M314.453,104.454L313.496,104.454C313.102,104.454 312.953,104.188 312.953,103.989C312.953,103.684 313.152,103.473 313.555,103.473L314.453,103.473L314.453,104.454ZM315.223,101.383L314.453,101.383L314.453,102.836L313.879,102.836L313.02,101.383L312.113,101.383L313.02,102.907C312.602,103.043 312.18,103.375 312.18,103.965C312.18,104.551 312.633,105.094 313.348,105.094L315.223,105.094L315.223,101.383Z" style="fill:rgb(0,132,52);"/>
                </g>
                <g transform="matrix(4.16667,0,0,-4.16667,-1024.48,623.24)">
                    <path d="M340.918,103.586L342.332,105.094L343.336,105.094L341.82,103.575L343.422,101.383L342.422,101.383L341.277,103.012L340.918,102.641L340.918,101.383L340.145,101.383L340.145,105.094L340.918,105.094L340.918,103.586Z" style="fill:rgb(0,132,52);"/>
                </g>
                <g transform="matrix(4.16667,0,0,-4.16667,-1024.48,623.644)">
                    <path d="M349.613,105.191L349.613,101.48L348.84,101.48L348.84,104.551L347.793,104.551L347.793,102.969C347.793,102.008 347.559,101.383 346.828,101.383C346.652,101.383 346.488,101.398 346.355,101.437L346.355,102.031C346.402,102.015 346.484,102 346.586,102C346.934,102 347.02,102.246 347.02,103.047L347.02,105.191L349.613,105.191Z" style="fill:rgb(0,132,52);"/>
                </g>
                <g transform="matrix(4.16667,0,0,-4.16667,-1024.48,623.24)">
                    <path d="M353.938,102.508L353.941,102.508L355.418,105.094L356.289,105.094L356.289,101.383L355.516,101.383L355.516,104.024L355.508,104.024L353.992,101.383L353.164,101.383L353.164,105.094L353.938,105.094L353.938,102.508Z" style="fill:rgb(0,132,52);"/>
                </g>
                <g transform="matrix(4.16667,0,0,-4.16667,-1024.48,623.24)">
                    <path d="M360.613,103.688L362.059,103.688L362.059,105.094L362.832,105.094L362.832,101.383L362.059,101.383L362.059,103.047L360.613,103.047L360.613,101.383L359.84,101.383L359.84,105.094L360.613,105.094L360.613,103.688Z" style="fill:rgb(0,132,52);"/>
                </g>
                <g transform="matrix(4.16667,0,0,-4.16667,-1024.48,623.24)">
                    <path d="M367.156,102.508L367.16,102.508L368.641,105.094L369.508,105.094L369.508,101.383L368.738,101.383L368.738,104.024L368.727,104.024L367.211,101.383L366.383,101.383L366.383,105.094L367.156,105.094L367.156,102.508Z" style="fill:rgb(0,132,52);"/>
                </g>
                <g transform="matrix(4.16667,0,0,-4.16667,-1024.48,623.24)">
                    <path d="M373.832,103.586L375.25,105.094L376.25,105.094L374.738,103.575L376.34,101.383L375.344,101.383L374.195,103.012L373.832,102.641L373.832,101.383L373.062,101.383L373.062,105.094L373.832,105.094L373.832,103.586Z" style="fill:rgb(0,132,52);"/>
                </g>
                <g transform="matrix(4.16667,0,0,-4.16667,-1024.48,623.24)">
                    <path d="M380.586,102.789L381.578,102.789L381.074,104.254L381.062,104.254L380.586,102.789ZM381.523,105.094L382.824,101.383L381.988,101.383L381.746,102.149L380.383,102.149L380.121,101.383L379.309,101.383L380.629,105.094L381.523,105.094Z" style="fill:rgb(0,132,52);"/>
                </g>
            </g>
        </g>
    </g>
</svg>
